<svg xmlns="http://www.w3.org/2000/svg" width="880" height="690"><style>.label { font: lighter 16px sans-serif; fill: #fff }.value { font: bold 16px sans-serif; fill: #fff }.root-node-label { font: 24px sans-serif; fill: #fff }</style><g><rect rx="15" style="fill:purple;fill-opacity:.6;stroke:purple;stroke-width:3" x="340.0" y="20" width="200" height="80"></rect><text class="root-node-label" x="405.0" y="70">ROOT</text><line x1="440.0" y1="100" x2="220.0" y2="250" style="stroke:purple;stroke-width:2" /><line x1="440.0" y1="100" x2="660.0" y2="250" style="stroke:purple;stroke-width:2" /></g><g><rect rx="15" style="fill:purple;fill-opacity:.6;stroke:purple;stroke-width:3" x="120.0" y="250" width="200" height="80"></rect><text class="label" x="140.0" y="285">Column index</text><text class="value" x="250.0" y="285">2</text><text class="label" x="140.0" y="305">Split condition</text><text class="value" x="250.0" y="305">&#60; 2.80</text></g><g><rect rx="15" style="fill:purple;fill-opacity:.6;stroke:purple;stroke-width:3" x="560.0" y="250" width="200" height="80"></rect><text class="label" x="580.0" y="285">Column index</text><text class="value" x="690.0" y="285">2</text><text class="label" x="580.0" y="305">Split condition</text><text class="value" x="690.0" y="305">&#8805; 2.80</text><line x1="660.0" y1="330" x2="550.0" y2="480" style="stroke:purple;stroke-width:2" /><line x1="660.0" y1="330" x2="770.0" y2="480" style="stroke:purple;stroke-width:2" /></g><g><rect rx="15" style="fill:purple;fill-opacity:.6;stroke:purple;stroke-width:3" x="450.0" y="480" width="200" height="80"></rect><text class="label" x="470.0" y="515">Column index</text><text class="value" x="580.0" y="515">3</text><text class="label" x="470.0" y="535">Split condition</text><text class="value" x="580.0" y="535">&#60; 1.75</text></g><g><rect rx="15" style="fill:purple;fill-opacity:.6;stroke:purple;stroke-width:3" x="670.0" y="480" width="200" height="80"></rect><text class="label" x="690.0" y="515">Column index</text><text class="value" x="800.0" y="515">3</text><text class="label" x="690.0" y="535">Split condition</text><text class="value" x="800.0" y="535">&#8805; 1.75</text></g></svg>