<svg xmlns="http://www.w3.org/2000/svg" width="880" height="690"><style>.label { font: 14px sans-serif; }.value { font: bold 14px sans-serif; }.root-node-label { font: 24px sans-serif; }</style><g><rect rx="15" style="fill:blue;fill-opacity:.25;stroke:cornflowerblue;stroke-width:2" x="340.0" y="20" width="200" height="80"></rect><text class="root-node-label" x="405.0" y="70">ROOT</text><line x1="440.0" y1="100" x2="220.0" y2="250" style="stroke:cornflowerblue;stroke-width:1" /><line x1="440.0" y1="100" x2="660.0" y2="250" style="stroke:cornflowerblue;stroke-width:1" /></g><g><rect rx="15" style="fill:blue;fill-opacity:.25;stroke:cornflowerblue;stroke-width:2" x="120.0" y="250" width="200" height="80"></rect><text class="label" x="140.0" y="285">Column index</text><text class="value" x="240.0" y="285">2</text><text class="label" x="140.0" y="305">Split condition</text><text class="value" x="240.0" y="305">&#60; 2.40</text></g><g><rect rx="15" style="fill:blue;fill-opacity:.25;stroke:cornflowerblue;stroke-width:2" x="560.0" y="250" width="200" height="80"></rect><text class="label" x="580.0" y="285">Column index</text><text class="value" x="680.0" y="285">2</text><text class="label" x="580.0" y="305">Split condition</text><text class="value" x="680.0" y="305">&#8805; 2.40</text><line x1="660.0" y1="330" x2="550.0" y2="480" style="stroke:cornflowerblue;stroke-width:1" /><line x1="660.0" y1="330" x2="770.0" y2="480" style="stroke:cornflowerblue;stroke-width:1" /></g><g><rect rx="15" style="fill:blue;fill-opacity:.25;stroke:cornflowerblue;stroke-width:2" x="450.0" y="480" width="200" height="80"></rect><text class="label" x="470.0" y="515">Column index</text><text class="value" x="570.0" y="515">3</text><text class="label" x="470.0" y="535">Split condition</text><text class="value" x="570.0" y="535">&#60; 1.70</text></g><g><rect rx="15" style="fill:blue;fill-opacity:.25;stroke:cornflowerblue;stroke-width:2" x="670.0" y="480" width="200" height="80"></rect><text class="label" x="690.0" y="515">Column index</text><text class="value" x="790.0" y="515">3</text><text class="label" x="690.0" y="535">Split condition</text><text class="value" x="790.0" y="535">&#8805; 1.70</text></g></svg>