<svg xmlns="http://www.w3.org/2000/svg" width="7040" height="1380"><style>.label { font: lighter 16px sans-serif; fill: #fff }.value { font: bold 16px sans-serif; fill: #fff }.root-node-label { font: 24px sans-serif; fill: #fff }</style><g><rect rx="15" style="fill:purple;fill-opacity:.6;stroke:purple;stroke-width:3" x="3420.0" y="20" width="200" height="80"></rect><text class="root-node-label" x="3485.0" y="70">ROOT</text><line x1="3520.0" y1="100" x2="1760.0" y2="250" style="stroke:purple;stroke-width:2" /><line x1="3520.0" y1="100" x2="5280.0" y2="250" style="stroke:purple;stroke-width:2" /></g><g><rect rx="15" style="fill:purple;fill-opacity:.6;stroke:purple;stroke-width:3" x="1660.0" y="250" width="200" height="80"></rect><text class="label" x="1680.0" y="285">Column index</text><text class="value" x="1790.0" y="285">1</text><text class="label" x="1680.0" y="305">Split condition</text><text class="value" x="1790.0" y="305">&#60; 127.50</text><line x1="1760.0" y1="330" x2="880.0" y2="480" style="stroke:purple;stroke-width:2" /><line x1="1760.0" y1="330" x2="2640.0" y2="480" style="stroke:purple;stroke-width:2" /></g><g><rect rx="15" style="fill:purple;fill-opacity:.6;stroke:purple;stroke-width:3" x="5180.0" y="250" width="200" height="80"></rect><text class="label" x="5200.0" y="285">Column index</text><text class="value" x="5310.0" y="285">1</text><text class="label" x="5200.0" y="305">Split condition</text><text class="value" x="5310.0" y="305">&#8805; 127.50</text><line x1="5280.0" y1="330" x2="4400.0" y2="480" style="stroke:purple;stroke-width:2" /><line x1="5280.0" y1="330" x2="6160.0" y2="480" style="stroke:purple;stroke-width:2" /></g><g><rect rx="15" style="fill:purple;fill-opacity:.6;stroke:purple;stroke-width:3" x="780.0" y="480" width="200" height="80"></rect><text class="label" x="800.0" y="515">Column index</text><text class="value" x="910.0" y="515">7</text><text class="label" x="800.0" y="535">Split condition</text><text class="value" x="910.0" y="535">&#60; 28.50</text><line x1="880.0" y1="560" x2="440.0" y2="710" style="stroke:purple;stroke-width:2" /><line x1="880.0" y1="560" x2="1320.0" y2="710" style="stroke:purple;stroke-width:2" /></g><g><rect rx="15" style="fill:purple;fill-opacity:.6;stroke:purple;stroke-width:3" x="2540.0" y="480" width="200" height="80"></rect><text class="label" x="2560.0" y="515">Column index</text><text class="value" x="2670.0" y="515">7</text><text class="label" x="2560.0" y="535">Split condition</text><text class="value" x="2670.0" y="535">&#8805; 28.50</text><line x1="2640.0" y1="560" x2="2200.0" y2="710" style="stroke:purple;stroke-width:2" /><line x1="2640.0" y1="560" x2="3080.0" y2="710" style="stroke:purple;stroke-width:2" /></g><g><rect rx="15" style="fill:purple;fill-opacity:.6;stroke:purple;stroke-width:3" x="4300.0" y="480" width="200" height="80"></rect><text class="label" x="4320.0" y="515">Column index</text><text class="value" x="4430.0" y="515">5</text><text class="label" x="4320.0" y="535">Split condition</text><text class="value" x="4430.0" y="535">&#60; 30.00</text><line x1="4400.0" y1="560" x2="3960.0" y2="710" style="stroke:purple;stroke-width:2" /><line x1="4400.0" y1="560" x2="4840.0" y2="710" style="stroke:purple;stroke-width:2" /></g><g><rect rx="15" style="fill:purple;fill-opacity:.6;stroke:purple;stroke-width:3" x="6060.0" y="480" width="200" height="80"></rect><text class="label" x="6080.0" y="515">Column index</text><text class="value" x="6190.0" y="515">5</text><text class="label" x="6080.0" y="535">Split condition</text><text class="value" x="6190.0" y="535">&#8805; 30.00</text><line x1="6160.0" y1="560" x2="5720.0" y2="710" style="stroke:purple;stroke-width:2" /><line x1="6160.0" y1="560" x2="6600.0" y2="710" style="stroke:purple;stroke-width:2" /></g><g><rect rx="15" style="fill:purple;fill-opacity:.6;stroke:purple;stroke-width:3" x="340.0" y="710" width="200" height="80"></rect><text class="label" x="360.0" y="745">Column index</text><text class="value" x="470.0" y="745">5</text><text class="label" x="360.0" y="765">Split condition</text><text class="value" x="470.0" y="765">&#60; 45.35</text></g><g><rect rx="15" style="fill:purple;fill-opacity:.6;stroke:purple;stroke-width:3" x="1220.0" y="710" width="200" height="80"></rect><text class="label" x="1240.0" y="745">Column index</text><text class="value" x="1350.0" y="745">5</text><text class="label" x="1240.0" y="765">Split condition</text><text class="value" x="1350.0" y="765">&#8805; 45.35</text><line x1="1320.0" y1="790" x2="1100.0" y2="940" style="stroke:purple;stroke-width:2" /><line x1="1320.0" y1="790" x2="1540.0" y2="940" style="stroke:purple;stroke-width:2" /></g><g><rect rx="15" style="fill:purple;fill-opacity:.6;stroke:purple;stroke-width:3" x="2100.0" y="710" width="200" height="80"></rect><text class="label" x="2120.0" y="745">Column index</text><text class="value" x="2230.0" y="745">5</text><text class="label" x="2120.0" y="765">Split condition</text><text class="value" x="2230.0" y="765">&#60; 26.35</text></g><g><rect rx="15" style="fill:purple;fill-opacity:.6;stroke:purple;stroke-width:3" x="2980.0" y="710" width="200" height="80"></rect><text class="label" x="3000.0" y="745">Column index</text><text class="value" x="3110.0" y="745">5</text><text class="label" x="3000.0" y="765">Split condition</text><text class="value" x="3110.0" y="765">&#8805; 26.35</text><line x1="3080.0" y1="790" x2="2860.0" y2="940" style="stroke:purple;stroke-width:2" /><line x1="3080.0" y1="790" x2="3300.0" y2="940" style="stroke:purple;stroke-width:2" /></g><g><rect rx="15" style="fill:purple;fill-opacity:.6;stroke:purple;stroke-width:3" x="3860.0" y="710" width="200" height="80"></rect><text class="label" x="3880.0" y="745">Column index</text><text class="value" x="3990.0" y="745">1</text><text class="label" x="3880.0" y="765">Split condition</text><text class="value" x="3990.0" y="765">&#60; 145.50</text><line x1="3960.0" y1="790" x2="3740.0" y2="940" style="stroke:purple;stroke-width:2" /><line x1="3960.0" y1="790" x2="4180.0" y2="940" style="stroke:purple;stroke-width:2" /></g><g><rect rx="15" style="fill:purple;fill-opacity:.6;stroke:purple;stroke-width:3" x="4740.0" y="710" width="200" height="80"></rect><text class="label" x="4760.0" y="745">Column index</text><text class="value" x="4870.0" y="745">1</text><text class="label" x="4760.0" y="765">Split condition</text><text class="value" x="4870.0" y="765">&#8805; 145.50</text><line x1="4840.0" y1="790" x2="4620.0" y2="940" style="stroke:purple;stroke-width:2" /><line x1="4840.0" y1="790" x2="5060.0" y2="940" style="stroke:purple;stroke-width:2" /></g><g><rect rx="15" style="fill:purple;fill-opacity:.6;stroke:purple;stroke-width:3" x="5620.0" y="710" width="200" height="80"></rect><text class="label" x="5640.0" y="745">Column index</text><text class="value" x="5750.0" y="745">1</text><text class="label" x="5640.0" y="765">Split condition</text><text class="value" x="5750.0" y="765">&#60; 157.50</text><line x1="5720.0" y1="790" x2="5500.0" y2="940" style="stroke:purple;stroke-width:2" /><line x1="5720.0" y1="790" x2="5940.0" y2="940" style="stroke:purple;stroke-width:2" /></g><g><rect rx="15" style="fill:purple;fill-opacity:.6;stroke:purple;stroke-width:3" x="6500.0" y="710" width="200" height="80"></rect><text class="label" x="6520.0" y="745">Column index</text><text class="value" x="6630.0" y="745">1</text><text class="label" x="6520.0" y="765">Split condition</text><text class="value" x="6630.0" y="765">&#8805; 157.50</text><line x1="6600.0" y1="790" x2="6380.0" y2="940" style="stroke:purple;stroke-width:2" /><line x1="6600.0" y1="790" x2="6820.0" y2="940" style="stroke:purple;stroke-width:2" /></g><g><rect rx="15" style="fill:purple;fill-opacity:.6;stroke:purple;stroke-width:3" x="1000.0" y="940" width="200" height="80"></rect><text class="label" x="1020.0" y="975">Column index</text><text class="value" x="1130.0" y="975">1</text><text class="label" x="1020.0" y="995">Split condition</text><text class="value" x="1130.0" y="995">&#60; 119.00</text></g><g><rect rx="15" style="fill:purple;fill-opacity:.6;stroke:purple;stroke-width:3" x="1440.0" y="940" width="200" height="80"></rect><text class="label" x="1460.0" y="975">Column index</text><text class="value" x="1570.0" y="975">1</text><text class="label" x="1460.0" y="995">Split condition</text><text class="value" x="1570.0" y="995">&#8805; 119.00</text></g><g><rect rx="15" style="fill:purple;fill-opacity:.6;stroke:purple;stroke-width:3" x="2760.0" y="940" width="200" height="80"></rect><text class="label" x="2780.0" y="975">Column index</text><text class="value" x="2890.0" y="975">1</text><text class="label" x="2780.0" y="995">Split condition</text><text class="value" x="2890.0" y="995">&#60; 99.50</text><line x1="2860.0" y1="1020" x2="2750.0" y2="1170" style="stroke:purple;stroke-width:2" /><line x1="2860.0" y1="1020" x2="2970.0" y2="1170" style="stroke:purple;stroke-width:2" /></g><g><rect rx="15" style="fill:purple;fill-opacity:.6;stroke:purple;stroke-width:3" x="3200.0" y="940" width="200" height="80"></rect><text class="label" x="3220.0" y="975">Column index</text><text class="value" x="3330.0" y="975">1</text><text class="label" x="3220.0" y="995">Split condition</text><text class="value" x="3330.0" y="995">&#8805; 99.50</text><line x1="3300.0" y1="1020" x2="3190.0" y2="1170" style="stroke:purple;stroke-width:2" /><line x1="3300.0" y1="1020" x2="3410.0" y2="1170" style="stroke:purple;stroke-width:2" /></g><g><rect rx="15" style="fill:purple;fill-opacity:.6;stroke:purple;stroke-width:3" x="3640.0" y="940" width="200" height="80"></rect><text class="label" x="3660.0" y="975">Column index</text><text class="value" x="3770.0" y="975">4</text><text class="label" x="3660.0" y="995">Split condition</text><text class="value" x="3770.0" y="995">&#60; 132.50</text><line x1="3740.0" y1="1020" x2="3630.0" y2="1170" style="stroke:purple;stroke-width:2" /><line x1="3740.0" y1="1020" x2="3850.0" y2="1170" style="stroke:purple;stroke-width:2" /></g><g><rect rx="15" style="fill:purple;fill-opacity:.6;stroke:purple;stroke-width:3" x="4080.0" y="940" width="200" height="80"></rect><text class="label" x="4100.0" y="975">Column index</text><text class="value" x="4210.0" y="975">4</text><text class="label" x="4100.0" y="995">Split condition</text><text class="value" x="4210.0" y="995">&#8805; 132.50</text></g><g><rect rx="15" style="fill:purple;fill-opacity:.6;stroke:purple;stroke-width:3" x="4520.0" y="940" width="200" height="80"></rect><text class="label" x="4540.0" y="975">Column index</text><text class="value" x="4650.0" y="975">7</text><text class="label" x="4540.0" y="995">Split condition</text><text class="value" x="4650.0" y="995">&#60; 25.50</text></g><g><rect rx="15" style="fill:purple;fill-opacity:.6;stroke:purple;stroke-width:3" x="4960.0" y="940" width="200" height="80"></rect><text class="label" x="4980.0" y="975">Column index</text><text class="value" x="5090.0" y="975">7</text><text class="label" x="4980.0" y="995">Split condition</text><text class="value" x="5090.0" y="995">&#8805; 25.50</text><line x1="5060.0" y1="1020" x2="4950.0" y2="1170" style="stroke:purple;stroke-width:2" /><line x1="5060.0" y1="1020" x2="5170.0" y2="1170" style="stroke:purple;stroke-width:2" /></g><g><rect rx="15" style="fill:purple;fill-opacity:.6;stroke:purple;stroke-width:3" x="5400.0" y="940" width="200" height="80"></rect><text class="label" x="5420.0" y="975">Column index</text><text class="value" x="5530.0" y="975">7</text><text class="label" x="5420.0" y="995">Split condition</text><text class="value" x="5530.0" y="995">&#60; 30.50</text><line x1="5500.0" y1="1020" x2="5390.0" y2="1170" style="stroke:purple;stroke-width:2" /><line x1="5500.0" y1="1020" x2="5610.0" y2="1170" style="stroke:purple;stroke-width:2" /></g><g><rect rx="15" style="fill:purple;fill-opacity:.6;stroke:purple;stroke-width:3" x="5840.0" y="940" width="200" height="80"></rect><text class="label" x="5860.0" y="975">Column index</text><text class="value" x="5970.0" y="975">7</text><text class="label" x="5860.0" y="995">Split condition</text><text class="value" x="5970.0" y="995">&#8805; 30.50</text><line x1="5940.0" y1="1020" x2="5830.0" y2="1170" style="stroke:purple;stroke-width:2" /><line x1="5940.0" y1="1020" x2="6050.0" y2="1170" style="stroke:purple;stroke-width:2" /></g><g><rect rx="15" style="fill:purple;fill-opacity:.6;stroke:purple;stroke-width:3" x="6280.0" y="940" width="200" height="80"></rect><text class="label" x="6300.0" y="975">Column index</text><text class="value" x="6410.0" y="975">4</text><text class="label" x="6300.0" y="995">Split condition</text><text class="value" x="6410.0" y="995">&#60; 629.50</text><line x1="6380.0" y1="1020" x2="6270.0" y2="1170" style="stroke:purple;stroke-width:2" /><line x1="6380.0" y1="1020" x2="6490.0" y2="1170" style="stroke:purple;stroke-width:2" /></g><g><rect rx="15" style="fill:purple;fill-opacity:.6;stroke:purple;stroke-width:3" x="6720.0" y="940" width="200" height="80"></rect><text class="label" x="6740.0" y="975">Column index</text><text class="value" x="6850.0" y="975">4</text><text class="label" x="6740.0" y="995">Split condition</text><text class="value" x="6850.0" y="995">&#8805; 629.50</text><line x1="6820.0" y1="1020" x2="6710.0" y2="1170" style="stroke:purple;stroke-width:2" /><line x1="6820.0" y1="1020" x2="6930.0" y2="1170" style="stroke:purple;stroke-width:2" /></g><g><rect rx="15" style="fill:purple;fill-opacity:.6;stroke:purple;stroke-width:3" x="2650.0" y="1170" width="200" height="80"></rect><text class="label" x="2670.0" y="1205">Column index</text><text class="value" x="2780.0" y="1205">1</text><text class="label" x="2670.0" y="1225">Split condition</text><text class="value" x="2780.0" y="1225">&#60; 28.50</text></g><g><rect rx="15" style="fill:purple;fill-opacity:.6;stroke:purple;stroke-width:3" x="2870.0" y="1170" width="200" height="80"></rect><text class="label" x="2890.0" y="1205">Column index</text><text class="value" x="3000.0" y="1205">1</text><text class="label" x="2890.0" y="1225">Split condition</text><text class="value" x="3000.0" y="1225">&#8805; 28.50</text></g><g><rect rx="15" style="fill:purple;fill-opacity:.6;stroke:purple;stroke-width:3" x="3090.0" y="1170" width="200" height="80"></rect><text class="label" x="3110.0" y="1205">Column index</text><text class="value" x="3220.0" y="1205">6</text><text class="label" x="3110.0" y="1225">Split condition</text><text class="value" x="3220.0" y="1225">&#60; 0.52</text></g><g><rect rx="15" style="fill:purple;fill-opacity:.6;stroke:purple;stroke-width:3" x="3310.0" y="1170" width="200" height="80"></rect><text class="label" x="3330.0" y="1205">Column index</text><text class="value" x="3440.0" y="1205">6</text><text class="label" x="3330.0" y="1225">Split condition</text><text class="value" x="3440.0" y="1225">&#8805; 0.52</text></g><g><rect rx="15" style="fill:purple;fill-opacity:.6;stroke:purple;stroke-width:3" x="3530.0" y="1170" width="200" height="80"></rect><text class="label" x="3550.0" y="1205">Column index</text><text class="value" x="3660.0" y="1205">5</text><text class="label" x="3550.0" y="1225">Split condition</text><text class="value" x="3660.0" y="1225">&#60; 28.20</text></g><g><rect rx="15" style="fill:purple;fill-opacity:.6;stroke:purple;stroke-width:3" x="3750.0" y="1170" width="200" height="80"></rect><text class="label" x="3770.0" y="1205">Column index</text><text class="value" x="3880.0" y="1205">5</text><text class="label" x="3770.0" y="1225">Split condition</text><text class="value" x="3880.0" y="1225">&#8805; 28.20</text></g><g><rect rx="15" style="fill:purple;fill-opacity:.6;stroke:purple;stroke-width:3" x="4850.0" y="1170" width="200" height="80"></rect><text class="label" x="4870.0" y="1205">Column index</text><text class="value" x="4980.0" y="1205">7</text><text class="label" x="4870.0" y="1225">Split condition</text><text class="value" x="4980.0" y="1225">&#60; 61.00</text></g><g><rect rx="15" style="fill:purple;fill-opacity:.6;stroke:purple;stroke-width:3" x="5070.0" y="1170" width="200" height="80"></rect><text class="label" x="5090.0" y="1205">Column index</text><text class="value" x="5200.0" y="1205">7</text><text class="label" x="5090.0" y="1225">Split condition</text><text class="value" x="5200.0" y="1225">&#8805; 61.00</text></g><g><rect rx="15" style="fill:purple;fill-opacity:.6;stroke:purple;stroke-width:3" x="5290.0" y="1170" width="200" height="80"></rect><text class="label" x="5310.0" y="1205">Column index</text><text class="value" x="5420.0" y="1205">2</text><text class="label" x="5310.0" y="1225">Split condition</text><text class="value" x="5420.0" y="1225">&#60; 61.00</text></g><g><rect rx="15" style="fill:purple;fill-opacity:.6;stroke:purple;stroke-width:3" x="5510.0" y="1170" width="200" height="80"></rect><text class="label" x="5530.0" y="1205">Column index</text><text class="value" x="5640.0" y="1205">2</text><text class="label" x="5530.0" y="1225">Split condition</text><text class="value" x="5640.0" y="1225">&#8805; 61.00</text></g><g><rect rx="15" style="fill:purple;fill-opacity:.6;stroke:purple;stroke-width:3" x="5730.0" y="1170" width="200" height="80"></rect><text class="label" x="5750.0" y="1205">Column index</text><text class="value" x="5860.0" y="1205">6</text><text class="label" x="5750.0" y="1225">Split condition</text><text class="value" x="5860.0" y="1225">&#60; 0.43</text></g><g><rect rx="15" style="fill:purple;fill-opacity:.6;stroke:purple;stroke-width:3" x="5950.0" y="1170" width="200" height="80"></rect><text class="label" x="5970.0" y="1205">Column index</text><text class="value" x="6080.0" y="1205">6</text><text class="label" x="5970.0" y="1225">Split condition</text><text class="value" x="6080.0" y="1225">&#8805; 0.43</text></g><g><rect rx="15" style="fill:purple;fill-opacity:.6;stroke:purple;stroke-width:3" x="6170.0" y="1170" width="200" height="80"></rect><text class="label" x="6190.0" y="1205">Column index</text><text class="value" x="6300.0" y="1205">6</text><text class="label" x="6190.0" y="1225">Split condition</text><text class="value" x="6300.0" y="1225">&#60; 0.30</text></g><g><rect rx="15" style="fill:purple;fill-opacity:.6;stroke:purple;stroke-width:3" x="6390.0" y="1170" width="200" height="80"></rect><text class="label" x="6410.0" y="1205">Column index</text><text class="value" x="6520.0" y="1205">6</text><text class="label" x="6410.0" y="1225">Split condition</text><text class="value" x="6520.0" y="1225">&#8805; 0.30</text></g><g><rect rx="15" style="fill:purple;fill-opacity:.6;stroke:purple;stroke-width:3" x="6610.0" y="1170" width="200" height="80"></rect><text class="label" x="6630.0" y="1205">Column index</text><text class="value" x="6740.0" y="1205">2</text><text class="label" x="6630.0" y="1225">Split condition</text><text class="value" x="6740.0" y="1225">&#60; 65.00</text></g><g><rect rx="15" style="fill:purple;fill-opacity:.6;stroke:purple;stroke-width:3" x="6830.0" y="1170" width="200" height="80"></rect><text class="label" x="6850.0" y="1205">Column index</text><text class="value" x="6960.0" y="1205">2</text><text class="label" x="6850.0" y="1225">Split condition</text><text class="value" x="6960.0" y="1225">&#8805; 65.00</text></g></svg>