<svg xmlns="http://www.w3.org/2000/svg" width="3520" height="650"><style>.label { font: 14px sans-serif; }.value { font: bold 14px sans-serif; }.root-node-label { font: 24px sans-serif; }</style><g><rect rx="15" style="fill:blue;fill-opacity:.25;stroke:cornflowerblue;stroke-width:2" x="1660.0" y="20" width="200" height="80"></rect><text class="root-node-label" x="1725.0" y="70">ROOT</text><line x1="1760.0" y1="100" x2="880.0" y2="150" style="stroke:cornflowerblue;stroke-width:1" /><line x1="1760.0" y1="100" x2="2640.0" y2="150" style="stroke:cornflowerblue;stroke-width:1" /></g><g><rect rx="15" style="fill:blue;fill-opacity:.25;stroke:cornflowerblue;stroke-width:2" x="780.0" y="150" width="200" height="80"></rect><text class="label" x="800.0" y="185">Column index</text><text class="value" x="900.0" y="185">1</text><text class="label" x="800.0" y="205">Split condition</text><text class="value" x="900.0" y="205">&#60; 143.50</text><line x1="880.0" y1="230" x2="440.0" y2="280" style="stroke:cornflowerblue;stroke-width:1" /><line x1="880.0" y1="230" x2="1320.0" y2="280" style="stroke:cornflowerblue;stroke-width:1" /></g><g><rect rx="15" style="fill:blue;fill-opacity:.25;stroke:cornflowerblue;stroke-width:2" x="2540.0" y="150" width="200" height="80"></rect><text class="label" x="2560.0" y="185">Column index</text><text class="value" x="2660.0" y="185">1</text><text class="label" x="2560.0" y="205">Split condition</text><text class="value" x="2660.0" y="205">&#8805; 143.50</text><line x1="2640.0" y1="230" x2="2200.0" y2="280" style="stroke:cornflowerblue;stroke-width:1" /><line x1="2640.0" y1="230" x2="3080.0" y2="280" style="stroke:cornflowerblue;stroke-width:1" /></g><g><rect rx="15" style="fill:blue;fill-opacity:.25;stroke:cornflowerblue;stroke-width:2" x="340.0" y="280" width="200" height="80"></rect><text class="label" x="360.0" y="315">Column index</text><text class="value" x="460.0" y="315">5</text><text class="label" x="360.0" y="335">Split condition</text><text class="value" x="460.0" y="335">&#60; 45.40</text><line x1="440.0" y1="360" x2="220.0" y2="410" style="stroke:cornflowerblue;stroke-width:1" /><line x1="440.0" y1="360" x2="660.0" y2="410" style="stroke:cornflowerblue;stroke-width:1" /></g><g><rect rx="15" style="fill:blue;fill-opacity:.25;stroke:cornflowerblue;stroke-width:2" x="1220.0" y="280" width="200" height="80"></rect><text class="label" x="1240.0" y="315">Column index</text><text class="value" x="1340.0" y="315">5</text><text class="label" x="1240.0" y="335">Split condition</text><text class="value" x="1340.0" y="335">&#8805; 45.40</text><line x1="1320.0" y1="360" x2="1100.0" y2="410" style="stroke:cornflowerblue;stroke-width:1" /><line x1="1320.0" y1="360" x2="1540.0" y2="410" style="stroke:cornflowerblue;stroke-width:1" /></g><g><rect rx="15" style="fill:blue;fill-opacity:.25;stroke:cornflowerblue;stroke-width:2" x="2100.0" y="280" width="200" height="80"></rect><text class="label" x="2120.0" y="315">Column index</text><text class="value" x="2220.0" y="315">5</text><text class="label" x="2120.0" y="335">Split condition</text><text class="value" x="2220.0" y="335">&#60; 23.15</text></g><g><rect rx="15" style="fill:blue;fill-opacity:.25;stroke:cornflowerblue;stroke-width:2" x="2980.0" y="280" width="200" height="80"></rect><text class="label" x="3000.0" y="315">Column index</text><text class="value" x="3100.0" y="315">5</text><text class="label" x="3000.0" y="335">Split condition</text><text class="value" x="3100.0" y="335">&#8805; 23.15</text><line x1="3080.0" y1="360" x2="2860.0" y2="410" style="stroke:cornflowerblue;stroke-width:1" /><line x1="3080.0" y1="360" x2="3300.0" y2="410" style="stroke:cornflowerblue;stroke-width:1" /></g><g><rect rx="15" style="fill:blue;fill-opacity:.25;stroke:cornflowerblue;stroke-width:2" x="120.0" y="410" width="200" height="80"></rect><text class="label" x="140.0" y="445">Column index</text><text class="value" x="240.0" y="445">0</text><text class="label" x="140.0" y="465">Split condition</text><text class="value" x="240.0" y="465">&#60; 12.50</text><line x1="220.0" y1="490" x2="110.0" y2="540" style="stroke:cornflowerblue;stroke-width:1" /><line x1="220.0" y1="490" x2="330.0" y2="540" style="stroke:cornflowerblue;stroke-width:1" /></g><g><rect rx="15" style="fill:blue;fill-opacity:.25;stroke:cornflowerblue;stroke-width:2" x="560.0" y="410" width="200" height="80"></rect><text class="label" x="580.0" y="445">Column index</text><text class="value" x="680.0" y="445">0</text><text class="label" x="580.0" y="465">Split condition</text><text class="value" x="680.0" y="465">&#8805; 12.50</text><line x1="660.0" y1="490" x2="550.0" y2="540" style="stroke:cornflowerblue;stroke-width:1" /><line x1="660.0" y1="490" x2="770.0" y2="540" style="stroke:cornflowerblue;stroke-width:1" /></g><g><rect rx="15" style="fill:blue;fill-opacity:.25;stroke:cornflowerblue;stroke-width:2" x="1000.0" y="410" width="200" height="80"></rect><text class="label" x="1020.0" y="445">Column index</text><text class="value" x="1120.0" y="445">1</text><text class="label" x="1020.0" y="465">Split condition</text><text class="value" x="1120.0" y="465">&#60; 84.50</text></g><g><rect rx="15" style="fill:blue;fill-opacity:.25;stroke:cornflowerblue;stroke-width:2" x="1440.0" y="410" width="200" height="80"></rect><text class="label" x="1460.0" y="445">Column index</text><text class="value" x="1560.0" y="445">1</text><text class="label" x="1460.0" y="465">Split condition</text><text class="value" x="1560.0" y="465">&#8805; 84.50</text><line x1="1540.0" y1="490" x2="1430.0" y2="540" style="stroke:cornflowerblue;stroke-width:1" /><line x1="1540.0" y1="490" x2="1650.0" y2="540" style="stroke:cornflowerblue;stroke-width:1" /></g><g><rect rx="15" style="fill:blue;fill-opacity:.25;stroke:cornflowerblue;stroke-width:2" x="2760.0" y="410" width="200" height="80"></rect><text class="label" x="2780.0" y="445">Column index</text><text class="value" x="2880.0" y="445">4</text><text class="label" x="2780.0" y="465">Split condition</text><text class="value" x="2880.0" y="465">&#60; 544.00</text><line x1="2860.0" y1="490" x2="2750.0" y2="540" style="stroke:cornflowerblue;stroke-width:1" /><line x1="2860.0" y1="490" x2="2970.0" y2="540" style="stroke:cornflowerblue;stroke-width:1" /></g><g><rect rx="15" style="fill:blue;fill-opacity:.25;stroke:cornflowerblue;stroke-width:2" x="3200.0" y="410" width="200" height="80"></rect><text class="label" x="3220.0" y="445">Column index</text><text class="value" x="3320.0" y="445">4</text><text class="label" x="3220.0" y="465">Split condition</text><text class="value" x="3320.0" y="465">&#8805; 544.00</text><line x1="3300.0" y1="490" x2="3190.0" y2="540" style="stroke:cornflowerblue;stroke-width:1" /><line x1="3300.0" y1="490" x2="3410.0" y2="540" style="stroke:cornflowerblue;stroke-width:1" /></g><g><rect rx="15" style="fill:blue;fill-opacity:.25;stroke:cornflowerblue;stroke-width:2" x="10.0" y="540" width="200" height="80"></rect><text class="label" x="30.0" y="575">Column index</text><text class="value" x="130.0" y="575">6</text><text class="label" x="30.0" y="595">Split condition</text><text class="value" x="130.0" y="595">&#60; 1.11</text></g><g><rect rx="15" style="fill:blue;fill-opacity:.25;stroke:cornflowerblue;stroke-width:2" x="230.0" y="540" width="200" height="80"></rect><text class="label" x="250.0" y="575">Column index</text><text class="value" x="350.0" y="575">6</text><text class="label" x="250.0" y="595">Split condition</text><text class="value" x="350.0" y="595">&#8805; 1.11</text></g><g><rect rx="15" style="fill:blue;fill-opacity:.25;stroke:cornflowerblue;stroke-width:2" x="450.0" y="540" width="200" height="80"></rect><text class="label" x="470.0" y="575">Column index</text><text class="value" x="570.0" y="575">6</text><text class="label" x="470.0" y="595">Split condition</text><text class="value" x="570.0" y="595">&#60; 0.37</text></g><g><rect rx="15" style="fill:blue;fill-opacity:.25;stroke:cornflowerblue;stroke-width:2" x="670.0" y="540" width="200" height="80"></rect><text class="label" x="690.0" y="575">Column index</text><text class="value" x="790.0" y="575">6</text><text class="label" x="690.0" y="595">Split condition</text><text class="value" x="790.0" y="595">&#8805; 0.37</text></g><g><rect rx="15" style="fill:blue;fill-opacity:.25;stroke:cornflowerblue;stroke-width:2" x="1330.0" y="540" width="200" height="80"></rect><text class="label" x="1350.0" y="575">Column index</text><text class="value" x="1450.0" y="575">3</text><text class="label" x="1350.0" y="595">Split condition</text><text class="value" x="1450.0" y="595">&#60; 55.50</text></g><g><rect rx="15" style="fill:blue;fill-opacity:.25;stroke:cornflowerblue;stroke-width:2" x="1550.0" y="540" width="200" height="80"></rect><text class="label" x="1570.0" y="575">Column index</text><text class="value" x="1670.0" y="575">3</text><text class="label" x="1570.0" y="595">Split condition</text><text class="value" x="1670.0" y="595">&#8805; 55.50</text></g><g><rect rx="15" style="fill:blue;fill-opacity:.25;stroke:cornflowerblue;stroke-width:2" x="2650.0" y="540" width="200" height="80"></rect><text class="label" x="2670.0" y="575">Column index</text><text class="value" x="2770.0" y="575">0</text><text class="label" x="2670.0" y="595">Split condition</text><text class="value" x="2770.0" y="595">&#60; 0.50</text></g><g><rect rx="15" style="fill:blue;fill-opacity:.25;stroke:cornflowerblue;stroke-width:2" x="2870.0" y="540" width="200" height="80"></rect><text class="label" x="2890.0" y="575">Column index</text><text class="value" x="2990.0" y="575">0</text><text class="label" x="2890.0" y="595">Split condition</text><text class="value" x="2990.0" y="595">&#8805; 0.50</text></g><g><rect rx="15" style="fill:blue;fill-opacity:.25;stroke:cornflowerblue;stroke-width:2" x="3090.0" y="540" width="200" height="80"></rect><text class="label" x="3110.0" y="575">Column index</text><text class="value" x="3210.0" y="575">2</text><text class="label" x="3110.0" y="595">Split condition</text><text class="value" x="3210.0" y="595">&#60; 69.00</text></g><g><rect rx="15" style="fill:blue;fill-opacity:.25;stroke:cornflowerblue;stroke-width:2" x="3310.0" y="540" width="200" height="80"></rect><text class="label" x="3330.0" y="575">Column index</text><text class="value" x="3430.0" y="575">2</text><text class="label" x="3330.0" y="595">Split condition</text><text class="value" x="3430.0" y="595">&#8805; 69.00</text></g></svg>