<svg xmlns="http://www.w3.org/2000/svg" width="7040" height="1380"><style>.label { font: 14px sans-serif; }.value { font: bold 14px sans-serif; }.root-node-label { font: 24px sans-serif; }</style><g><rect rx="15" style="fill:blue;fill-opacity:.25;stroke:cornflowerblue;stroke-width:2" x="3420.0" y="20" width="200" height="80"></rect><text class="root-node-label" x="3485.0" y="70">ROOT</text><line x1="3520.0" y1="100" x2="1760.0" y2="250" style="stroke:cornflowerblue;stroke-width:1" /><line x1="3520.0" y1="100" x2="5280.0" y2="250" style="stroke:cornflowerblue;stroke-width:1" /></g><g><rect rx="15" style="fill:blue;fill-opacity:.25;stroke:cornflowerblue;stroke-width:2" x="1660.0" y="250" width="200" height="80"></rect><text class="label" x="1680.0" y="285">Column index</text><text class="value" x="1780.0" y="285">1</text><text class="label" x="1680.0" y="305">Split condition</text><text class="value" x="1780.0" y="305">&#60; 143.50</text><line x1="1760.0" y1="330" x2="880.0" y2="480" style="stroke:cornflowerblue;stroke-width:1" /><line x1="1760.0" y1="330" x2="2640.0" y2="480" style="stroke:cornflowerblue;stroke-width:1" /></g><g><rect rx="15" style="fill:blue;fill-opacity:.25;stroke:cornflowerblue;stroke-width:2" x="5180.0" y="250" width="200" height="80"></rect><text class="label" x="5200.0" y="285">Column index</text><text class="value" x="5300.0" y="285">1</text><text class="label" x="5200.0" y="305">Split condition</text><text class="value" x="5300.0" y="305">&#8805; 143.50</text><line x1="5280.0" y1="330" x2="4400.0" y2="480" style="stroke:cornflowerblue;stroke-width:1" /><line x1="5280.0" y1="330" x2="6160.0" y2="480" style="stroke:cornflowerblue;stroke-width:1" /></g><g><rect rx="15" style="fill:blue;fill-opacity:.25;stroke:cornflowerblue;stroke-width:2" x="780.0" y="480" width="200" height="80"></rect><text class="label" x="800.0" y="515">Column index</text><text class="value" x="900.0" y="515">5</text><text class="label" x="800.0" y="535">Split condition</text><text class="value" x="900.0" y="535">&#60; 46.75</text><line x1="880.0" y1="560" x2="440.0" y2="710" style="stroke:cornflowerblue;stroke-width:1" /><line x1="880.0" y1="560" x2="1320.0" y2="710" style="stroke:cornflowerblue;stroke-width:1" /></g><g><rect rx="15" style="fill:blue;fill-opacity:.25;stroke:cornflowerblue;stroke-width:2" x="2540.0" y="480" width="200" height="80"></rect><text class="label" x="2560.0" y="515">Column index</text><text class="value" x="2660.0" y="515">5</text><text class="label" x="2560.0" y="535">Split condition</text><text class="value" x="2660.0" y="535">&#8805; 46.75</text><line x1="2640.0" y1="560" x2="2200.0" y2="710" style="stroke:cornflowerblue;stroke-width:1" /><line x1="2640.0" y1="560" x2="3080.0" y2="710" style="stroke:cornflowerblue;stroke-width:1" /></g><g><rect rx="15" style="fill:blue;fill-opacity:.25;stroke:cornflowerblue;stroke-width:2" x="4300.0" y="480" width="200" height="80"></rect><text class="label" x="4320.0" y="515">Column index</text><text class="value" x="4420.0" y="515">5</text><text class="label" x="4320.0" y="535">Split condition</text><text class="value" x="4420.0" y="535">&#60; 23.15</text></g><g><rect rx="15" style="fill:blue;fill-opacity:.25;stroke:cornflowerblue;stroke-width:2" x="6060.0" y="480" width="200" height="80"></rect><text class="label" x="6080.0" y="515">Column index</text><text class="value" x="6180.0" y="515">5</text><text class="label" x="6080.0" y="535">Split condition</text><text class="value" x="6180.0" y="535">&#8805; 23.15</text><line x1="6160.0" y1="560" x2="5720.0" y2="710" style="stroke:cornflowerblue;stroke-width:1" /><line x1="6160.0" y1="560" x2="6600.0" y2="710" style="stroke:cornflowerblue;stroke-width:1" /></g><g><rect rx="15" style="fill:blue;fill-opacity:.25;stroke:cornflowerblue;stroke-width:2" x="340.0" y="710" width="200" height="80"></rect><text class="label" x="360.0" y="745">Column index</text><text class="value" x="460.0" y="745">0</text><text class="label" x="360.0" y="765">Split condition</text><text class="value" x="460.0" y="765">&#60; 12.50</text><line x1="440.0" y1="790" x2="220.0" y2="940" style="stroke:cornflowerblue;stroke-width:1" /><line x1="440.0" y1="790" x2="660.0" y2="940" style="stroke:cornflowerblue;stroke-width:1" /></g><g><rect rx="15" style="fill:blue;fill-opacity:.25;stroke:cornflowerblue;stroke-width:2" x="1220.0" y="710" width="200" height="80"></rect><text class="label" x="1240.0" y="745">Column index</text><text class="value" x="1340.0" y="745">0</text><text class="label" x="1240.0" y="765">Split condition</text><text class="value" x="1340.0" y="765">&#8805; 12.50</text><line x1="1320.0" y1="790" x2="1100.0" y2="940" style="stroke:cornflowerblue;stroke-width:1" /><line x1="1320.0" y1="790" x2="1540.0" y2="940" style="stroke:cornflowerblue;stroke-width:1" /></g><g><rect rx="15" style="fill:blue;fill-opacity:.25;stroke:cornflowerblue;stroke-width:2" x="2100.0" y="710" width="200" height="80"></rect><text class="label" x="2120.0" y="745">Column index</text><text class="value" x="2220.0" y="745">3</text><text class="label" x="2120.0" y="765">Split condition</text><text class="value" x="2220.0" y="765">&#60; 55.50</text></g><g><rect rx="15" style="fill:blue;fill-opacity:.25;stroke:cornflowerblue;stroke-width:2" x="2980.0" y="710" width="200" height="80"></rect><text class="label" x="3000.0" y="745">Column index</text><text class="value" x="3100.0" y="745">3</text><text class="label" x="3000.0" y="765">Split condition</text><text class="value" x="3100.0" y="765">&#8805; 55.50</text></g><g><rect rx="15" style="fill:blue;fill-opacity:.25;stroke:cornflowerblue;stroke-width:2" x="5620.0" y="710" width="200" height="80"></rect><text class="label" x="5640.0" y="745">Column index</text><text class="value" x="5740.0" y="745">4</text><text class="label" x="5640.0" y="765">Split condition</text><text class="value" x="5740.0" y="765">&#60; 544.00</text><line x1="5720.0" y1="790" x2="5500.0" y2="940" style="stroke:cornflowerblue;stroke-width:1" /><line x1="5720.0" y1="790" x2="5940.0" y2="940" style="stroke:cornflowerblue;stroke-width:1" /></g><g><rect rx="15" style="fill:blue;fill-opacity:.25;stroke:cornflowerblue;stroke-width:2" x="6500.0" y="710" width="200" height="80"></rect><text class="label" x="6520.0" y="745">Column index</text><text class="value" x="6620.0" y="745">4</text><text class="label" x="6520.0" y="765">Split condition</text><text class="value" x="6620.0" y="765">&#8805; 544.00</text><line x1="6600.0" y1="790" x2="6380.0" y2="940" style="stroke:cornflowerblue;stroke-width:1" /><line x1="6600.0" y1="790" x2="6820.0" y2="940" style="stroke:cornflowerblue;stroke-width:1" /></g><g><rect rx="15" style="fill:blue;fill-opacity:.25;stroke:cornflowerblue;stroke-width:2" x="120.0" y="940" width="200" height="80"></rect><text class="label" x="140.0" y="975">Column index</text><text class="value" x="240.0" y="975">5</text><text class="label" x="140.0" y="995">Split condition</text><text class="value" x="240.0" y="995">&#60; 45.35</text><line x1="220.0" y1="1020" x2="110.0" y2="1170" style="stroke:cornflowerblue;stroke-width:1" /><line x1="220.0" y1="1020" x2="330.0" y2="1170" style="stroke:cornflowerblue;stroke-width:1" /></g><g><rect rx="15" style="fill:blue;fill-opacity:.25;stroke:cornflowerblue;stroke-width:2" x="560.0" y="940" width="200" height="80"></rect><text class="label" x="580.0" y="975">Column index</text><text class="value" x="680.0" y="975">5</text><text class="label" x="580.0" y="995">Split condition</text><text class="value" x="680.0" y="995">&#8805; 45.35</text><line x1="660.0" y1="1020" x2="550.0" y2="1170" style="stroke:cornflowerblue;stroke-width:1" /><line x1="660.0" y1="1020" x2="770.0" y2="1170" style="stroke:cornflowerblue;stroke-width:1" /></g><g><rect rx="15" style="fill:blue;fill-opacity:.25;stroke:cornflowerblue;stroke-width:2" x="1000.0" y="940" width="200" height="80"></rect><text class="label" x="1020.0" y="975">Column index</text><text class="value" x="1120.0" y="975">6</text><text class="label" x="1020.0" y="995">Split condition</text><text class="value" x="1120.0" y="995">&#60; 0.41</text><line x1="1100.0" y1="1020" x2="990.0" y2="1170" style="stroke:cornflowerblue;stroke-width:1" /><line x1="1100.0" y1="1020" x2="1210.0" y2="1170" style="stroke:cornflowerblue;stroke-width:1" /></g><g><rect rx="15" style="fill:blue;fill-opacity:.25;stroke:cornflowerblue;stroke-width:2" x="1440.0" y="940" width="200" height="80"></rect><text class="label" x="1460.0" y="975">Column index</text><text class="value" x="1560.0" y="975">6</text><text class="label" x="1460.0" y="995">Split condition</text><text class="value" x="1560.0" y="995">&#8805; 0.41</text></g><g><rect rx="15" style="fill:blue;fill-opacity:.25;stroke:cornflowerblue;stroke-width:2" x="5400.0" y="940" width="200" height="80"></rect><text class="label" x="5420.0" y="975">Column index</text><text class="value" x="5520.0" y="975">0</text><text class="label" x="5420.0" y="995">Split condition</text><text class="value" x="5520.0" y="995">&#60; 0.50</text><line x1="5500.0" y1="1020" x2="5390.0" y2="1170" style="stroke:cornflowerblue;stroke-width:1" /><line x1="5500.0" y1="1020" x2="5610.0" y2="1170" style="stroke:cornflowerblue;stroke-width:1" /></g><g><rect rx="15" style="fill:blue;fill-opacity:.25;stroke:cornflowerblue;stroke-width:2" x="5840.0" y="940" width="200" height="80"></rect><text class="label" x="5860.0" y="975">Column index</text><text class="value" x="5960.0" y="975">0</text><text class="label" x="5860.0" y="995">Split condition</text><text class="value" x="5960.0" y="995">&#8805; 0.50</text><line x1="5940.0" y1="1020" x2="5830.0" y2="1170" style="stroke:cornflowerblue;stroke-width:1" /><line x1="5940.0" y1="1020" x2="6050.0" y2="1170" style="stroke:cornflowerblue;stroke-width:1" /></g><g><rect rx="15" style="fill:blue;fill-opacity:.25;stroke:cornflowerblue;stroke-width:2" x="6280.0" y="940" width="200" height="80"></rect><text class="label" x="6300.0" y="975">Column index</text><text class="value" x="6400.0" y="975">2</text><text class="label" x="6300.0" y="995">Split condition</text><text class="value" x="6400.0" y="995">&#60; 69.00</text></g><g><rect rx="15" style="fill:blue;fill-opacity:.25;stroke:cornflowerblue;stroke-width:2" x="6720.0" y="940" width="200" height="80"></rect><text class="label" x="6740.0" y="975">Column index</text><text class="value" x="6840.0" y="975">2</text><text class="label" x="6740.0" y="995">Split condition</text><text class="value" x="6840.0" y="995">&#8805; 69.00</text></g><g><rect rx="15" style="fill:blue;fill-opacity:.25;stroke:cornflowerblue;stroke-width:2" x="10.0" y="1170" width="200" height="80"></rect><text class="label" x="30.0" y="1205">Column index</text><text class="value" x="130.0" y="1205">4</text><text class="label" x="30.0" y="1225">Split condition</text><text class="value" x="130.0" y="1225">&#60; 447.50</text></g><g><rect rx="15" style="fill:blue;fill-opacity:.25;stroke:cornflowerblue;stroke-width:2" x="230.0" y="1170" width="200" height="80"></rect><text class="label" x="250.0" y="1205">Column index</text><text class="value" x="350.0" y="1205">4</text><text class="label" x="250.0" y="1225">Split condition</text><text class="value" x="350.0" y="1225">&#8805; 447.50</text></g><g><rect rx="15" style="fill:blue;fill-opacity:.25;stroke:cornflowerblue;stroke-width:2" x="450.0" y="1170" width="200" height="80"></rect><text class="label" x="470.0" y="1205">Column index</text><text class="value" x="570.0" y="1205">2</text><text class="label" x="470.0" y="1225">Split condition</text><text class="value" x="570.0" y="1225">&#60; 79.00</text></g><g><rect rx="15" style="fill:blue;fill-opacity:.25;stroke:cornflowerblue;stroke-width:2" x="670.0" y="1170" width="200" height="80"></rect><text class="label" x="690.0" y="1205">Column index</text><text class="value" x="790.0" y="1205">2</text><text class="label" x="690.0" y="1225">Split condition</text><text class="value" x="790.0" y="1225">&#8805; 79.00</text></g><g><rect rx="15" style="fill:blue;fill-opacity:.25;stroke:cornflowerblue;stroke-width:2" x="890.0" y="1170" width="200" height="80"></rect><text class="label" x="910.0" y="1205">Column index</text><text class="value" x="1010.0" y="1205">0</text><text class="label" x="910.0" y="1225">Split condition</text><text class="value" x="1010.0" y="1225">&#60; 14.00</text></g><g><rect rx="15" style="fill:blue;fill-opacity:.25;stroke:cornflowerblue;stroke-width:2" x="1110.0" y="1170" width="200" height="80"></rect><text class="label" x="1130.0" y="1205">Column index</text><text class="value" x="1230.0" y="1205">0</text><text class="label" x="1130.0" y="1225">Split condition</text><text class="value" x="1230.0" y="1225">&#8805; 14.00</text></g><g><rect rx="15" style="fill:blue;fill-opacity:.25;stroke:cornflowerblue;stroke-width:2" x="5290.0" y="1170" width="200" height="80"></rect><text class="label" x="5310.0" y="1205">Column index</text><text class="value" x="5410.0" y="1205">7</text><text class="label" x="5310.0" y="1225">Split condition</text><text class="value" x="5410.0" y="1225">&#60; 42.50</text></g><g><rect rx="15" style="fill:blue;fill-opacity:.25;stroke:cornflowerblue;stroke-width:2" x="5510.0" y="1170" width="200" height="80"></rect><text class="label" x="5530.0" y="1205">Column index</text><text class="value" x="5630.0" y="1205">7</text><text class="label" x="5530.0" y="1225">Split condition</text><text class="value" x="5630.0" y="1225">&#8805; 42.50</text></g><g><rect rx="15" style="fill:blue;fill-opacity:.25;stroke:cornflowerblue;stroke-width:2" x="5730.0" y="1170" width="200" height="80"></rect><text class="label" x="5750.0" y="1205">Column index</text><text class="value" x="5850.0" y="1205">7</text><text class="label" x="5750.0" y="1225">Split condition</text><text class="value" x="5850.0" y="1225">&#60; 23.50</text></g><g><rect rx="15" style="fill:blue;fill-opacity:.25;stroke:cornflowerblue;stroke-width:2" x="5950.0" y="1170" width="200" height="80"></rect><text class="label" x="5970.0" y="1205">Column index</text><text class="value" x="6070.0" y="1205">7</text><text class="label" x="5970.0" y="1225">Split condition</text><text class="value" x="6070.0" y="1225">&#8805; 23.50</text></g></svg>