<svg xmlns="http://www.w3.org/2000/svg" width="3520" height="1150"><style>.label { font: 14px sans-serif; }.value { font: bold 14px sans-serif; }.root-node-label { font: 24px sans-serif; }</style><g><rect rx="15" style="fill:blue;fill-opacity:.25;stroke:cornflowerblue;stroke-width:2" x="1660.0" y="20" width="200" height="80"></rect><text class="root-node-label" x="1725.0" y="70">ROOT</text><line x1="1760.0" y1="100" x2="880.0" y2="250" style="stroke:cornflowerblue;stroke-width:1" /><line x1="1760.0" y1="100" x2="2640.0" y2="250" style="stroke:cornflowerblue;stroke-width:1" /></g><g><rect rx="15" style="fill:blue;fill-opacity:.25;stroke:cornflowerblue;stroke-width:2" x="780.0" y="250" width="200" height="80"></rect><text class="label" x="800.0" y="285">Column index</text><text class="value" x="900.0" y="285">1</text><text class="label" x="800.0" y="305">Split condition</text><text class="value" x="900.0" y="305">&#60; 143.50</text><line x1="880.0" y1="330" x2="440.0" y2="480" style="stroke:cornflowerblue;stroke-width:1" /><line x1="880.0" y1="330" x2="1320.0" y2="480" style="stroke:cornflowerblue;stroke-width:1" /></g><g><rect rx="15" style="fill:blue;fill-opacity:.25;stroke:cornflowerblue;stroke-width:2" x="2540.0" y="250" width="200" height="80"></rect><text class="label" x="2560.0" y="285">Column index</text><text class="value" x="2660.0" y="285">1</text><text class="label" x="2560.0" y="305">Split condition</text><text class="value" x="2660.0" y="305">&#8805; 143.50</text><line x1="2640.0" y1="330" x2="2200.0" y2="480" style="stroke:cornflowerblue;stroke-width:1" /><line x1="2640.0" y1="330" x2="3080.0" y2="480" style="stroke:cornflowerblue;stroke-width:1" /></g><g><rect rx="15" style="fill:blue;fill-opacity:.25;stroke:cornflowerblue;stroke-width:2" x="340.0" y="480" width="200" height="80"></rect><text class="label" x="360.0" y="515">Column index</text><text class="value" x="460.0" y="515">5</text><text class="label" x="360.0" y="535">Split condition</text><text class="value" x="460.0" y="535">&#60; 45.45</text><line x1="440.0" y1="560" x2="220.0" y2="710" style="stroke:cornflowerblue;stroke-width:1" /><line x1="440.0" y1="560" x2="660.0" y2="710" style="stroke:cornflowerblue;stroke-width:1" /></g><g><rect rx="15" style="fill:blue;fill-opacity:.25;stroke:cornflowerblue;stroke-width:2" x="1220.0" y="480" width="200" height="80"></rect><text class="label" x="1240.0" y="515">Column index</text><text class="value" x="1340.0" y="515">5</text><text class="label" x="1240.0" y="535">Split condition</text><text class="value" x="1340.0" y="535">&#8805; 45.45</text><line x1="1320.0" y1="560" x2="1100.0" y2="710" style="stroke:cornflowerblue;stroke-width:1" /><line x1="1320.0" y1="560" x2="1540.0" y2="710" style="stroke:cornflowerblue;stroke-width:1" /></g><g><rect rx="15" style="fill:blue;fill-opacity:.25;stroke:cornflowerblue;stroke-width:2" x="2100.0" y="480" width="200" height="80"></rect><text class="label" x="2120.0" y="515">Column index</text><text class="value" x="2220.0" y="515">5</text><text class="label" x="2120.0" y="535">Split condition</text><text class="value" x="2220.0" y="535">&#60; 23.10</text></g><g><rect rx="15" style="fill:blue;fill-opacity:.25;stroke:cornflowerblue;stroke-width:2" x="2980.0" y="480" width="200" height="80"></rect><text class="label" x="3000.0" y="515">Column index</text><text class="value" x="3100.0" y="515">5</text><text class="label" x="3000.0" y="535">Split condition</text><text class="value" x="3100.0" y="535">&#8805; 23.10</text><line x1="3080.0" y1="560" x2="2860.0" y2="710" style="stroke:cornflowerblue;stroke-width:1" /><line x1="3080.0" y1="560" x2="3300.0" y2="710" style="stroke:cornflowerblue;stroke-width:1" /></g><g><rect rx="15" style="fill:blue;fill-opacity:.25;stroke:cornflowerblue;stroke-width:2" x="120.0" y="710" width="200" height="80"></rect><text class="label" x="140.0" y="745">Column index</text><text class="value" x="240.0" y="745">0</text><text class="label" x="140.0" y="765">Split condition</text><text class="value" x="240.0" y="765">&#60; 12.50</text><line x1="220.0" y1="790" x2="110.0" y2="940" style="stroke:cornflowerblue;stroke-width:1" /><line x1="220.0" y1="790" x2="330.0" y2="940" style="stroke:cornflowerblue;stroke-width:1" /></g><g><rect rx="15" style="fill:blue;fill-opacity:.25;stroke:cornflowerblue;stroke-width:2" x="560.0" y="710" width="200" height="80"></rect><text class="label" x="580.0" y="745">Column index</text><text class="value" x="680.0" y="745">0</text><text class="label" x="580.0" y="765">Split condition</text><text class="value" x="680.0" y="765">&#8805; 12.50</text><line x1="660.0" y1="790" x2="550.0" y2="940" style="stroke:cornflowerblue;stroke-width:1" /><line x1="660.0" y1="790" x2="770.0" y2="940" style="stroke:cornflowerblue;stroke-width:1" /></g><g><rect rx="15" style="fill:blue;fill-opacity:.25;stroke:cornflowerblue;stroke-width:2" x="1000.0" y="710" width="200" height="80"></rect><text class="label" x="1020.0" y="745">Column index</text><text class="value" x="1120.0" y="745">1</text><text class="label" x="1020.0" y="765">Split condition</text><text class="value" x="1120.0" y="765">&#60; 84.50</text></g><g><rect rx="15" style="fill:blue;fill-opacity:.25;stroke:cornflowerblue;stroke-width:2" x="1440.0" y="710" width="200" height="80"></rect><text class="label" x="1460.0" y="745">Column index</text><text class="value" x="1560.0" y="745">1</text><text class="label" x="1460.0" y="765">Split condition</text><text class="value" x="1560.0" y="765">&#8805; 84.50</text><line x1="1540.0" y1="790" x2="1430.0" y2="940" style="stroke:cornflowerblue;stroke-width:1" /><line x1="1540.0" y1="790" x2="1650.0" y2="940" style="stroke:cornflowerblue;stroke-width:1" /></g><g><rect rx="15" style="fill:blue;fill-opacity:.25;stroke:cornflowerblue;stroke-width:2" x="2760.0" y="710" width="200" height="80"></rect><text class="label" x="2780.0" y="745">Column index</text><text class="value" x="2880.0" y="745">4</text><text class="label" x="2780.0" y="765">Split condition</text><text class="value" x="2880.0" y="765">&#60; 544.00</text><line x1="2860.0" y1="790" x2="2750.0" y2="940" style="stroke:cornflowerblue;stroke-width:1" /><line x1="2860.0" y1="790" x2="2970.0" y2="940" style="stroke:cornflowerblue;stroke-width:1" /></g><g><rect rx="15" style="fill:blue;fill-opacity:.25;stroke:cornflowerblue;stroke-width:2" x="3200.0" y="710" width="200" height="80"></rect><text class="label" x="3220.0" y="745">Column index</text><text class="value" x="3320.0" y="745">4</text><text class="label" x="3220.0" y="765">Split condition</text><text class="value" x="3320.0" y="765">&#8805; 544.00</text><line x1="3300.0" y1="790" x2="3190.0" y2="940" style="stroke:cornflowerblue;stroke-width:1" /><line x1="3300.0" y1="790" x2="3410.0" y2="940" style="stroke:cornflowerblue;stroke-width:1" /></g><g><rect rx="15" style="fill:blue;fill-opacity:.25;stroke:cornflowerblue;stroke-width:2" x="10.0" y="940" width="200" height="80"></rect><text class="label" x="30.0" y="975">Column index</text><text class="value" x="130.0" y="975">4</text><text class="label" x="30.0" y="995">Split condition</text><text class="value" x="130.0" y="995">&#60; 447.50</text></g><g><rect rx="15" style="fill:blue;fill-opacity:.25;stroke:cornflowerblue;stroke-width:2" x="230.0" y="940" width="200" height="80"></rect><text class="label" x="250.0" y="975">Column index</text><text class="value" x="350.0" y="975">4</text><text class="label" x="250.0" y="995">Split condition</text><text class="value" x="350.0" y="995">&#8805; 447.50</text></g><g><rect rx="15" style="fill:blue;fill-opacity:.25;stroke:cornflowerblue;stroke-width:2" x="450.0" y="940" width="200" height="80"></rect><text class="label" x="470.0" y="975">Column index</text><text class="value" x="570.0" y="975">6</text><text class="label" x="470.0" y="995">Split condition</text><text class="value" x="570.0" y="995">&#60; 0.32</text></g><g><rect rx="15" style="fill:blue;fill-opacity:.25;stroke:cornflowerblue;stroke-width:2" x="670.0" y="940" width="200" height="80"></rect><text class="label" x="690.0" y="975">Column index</text><text class="value" x="790.0" y="975">6</text><text class="label" x="690.0" y="995">Split condition</text><text class="value" x="790.0" y="995">&#8805; 0.32</text></g><g><rect rx="15" style="fill:blue;fill-opacity:.25;stroke:cornflowerblue;stroke-width:2" x="1330.0" y="940" width="200" height="80"></rect><text class="label" x="1350.0" y="975">Column index</text><text class="value" x="1450.0" y="975">3</text><text class="label" x="1350.0" y="995">Split condition</text><text class="value" x="1450.0" y="995">&#60; 55.50</text></g><g><rect rx="15" style="fill:blue;fill-opacity:.25;stroke:cornflowerblue;stroke-width:2" x="1550.0" y="940" width="200" height="80"></rect><text class="label" x="1570.0" y="975">Column index</text><text class="value" x="1670.0" y="975">3</text><text class="label" x="1570.0" y="995">Split condition</text><text class="value" x="1670.0" y="995">&#8805; 55.50</text></g><g><rect rx="15" style="fill:blue;fill-opacity:.25;stroke:cornflowerblue;stroke-width:2" x="2650.0" y="940" width="200" height="80"></rect><text class="label" x="2670.0" y="975">Column index</text><text class="value" x="2770.0" y="975">0</text><text class="label" x="2670.0" y="995">Split condition</text><text class="value" x="2770.0" y="995">&#60; 0.50</text></g><g><rect rx="15" style="fill:blue;fill-opacity:.25;stroke:cornflowerblue;stroke-width:2" x="2870.0" y="940" width="200" height="80"></rect><text class="label" x="2890.0" y="975">Column index</text><text class="value" x="2990.0" y="975">0</text><text class="label" x="2890.0" y="995">Split condition</text><text class="value" x="2990.0" y="995">&#8805; 0.50</text></g><g><rect rx="15" style="fill:blue;fill-opacity:.25;stroke:cornflowerblue;stroke-width:2" x="3090.0" y="940" width="200" height="80"></rect><text class="label" x="3110.0" y="975">Column index</text><text class="value" x="3210.0" y="975">2</text><text class="label" x="3110.0" y="995">Split condition</text><text class="value" x="3210.0" y="995">&#60; 69.00</text></g><g><rect rx="15" style="fill:blue;fill-opacity:.25;stroke:cornflowerblue;stroke-width:2" x="3310.0" y="940" width="200" height="80"></rect><text class="label" x="3330.0" y="975">Column index</text><text class="value" x="3430.0" y="975">2</text><text class="label" x="3330.0" y="995">Split condition</text><text class="value" x="3430.0" y="995">&#8805; 69.00</text></g></svg>