<svg xmlns="http://www.w3.org/2000/svg" width="340" height="510"><g><rect rx="10" style="fill:blue;fill-opacity:.8" x="95" y="20" width="150" height="120"></rect><text x="115" y="40">Value:</text><text x="215" y="40">-</text><text x="115" y="60">Split index:</text><text x="215" y="60">-</text><text x="115" y="80">Split predicate:</text><text x="215" y="80">-</text></g><g><rect rx="10" style="fill:blue;fill-opacity:.8" x="0" y="190" width="150" height="120"></rect><text x="20" y="210">Value:</text><text x="120" y="210">2.55</text><text x="20" y="230">Split index:</text><text x="120" y="230">2</text><text x="20" y="250">Split predicate:</text><text x="120" y="250">&#60;</text></g><g><rect rx="10" style="fill:blue;fill-opacity:.8" x="170" y="190" width="150" height="120"></rect><text x="190" y="210">Value:</text><text x="290" y="210">2.55</text><text x="190" y="230">Split index:</text><text x="290" y="230">2</text><text x="190" y="250">Split predicate:</text><text x="290" y="250">&#8805;</text></g><g><rect rx="10" style="fill:blue;fill-opacity:.8" x="20" y="360" width="150" height="120"></rect><text x="40" y="380">Value:</text><text x="140" y="380">1.70</text><text x="40" y="400">Split index:</text><text x="140" y="400">3</text><text x="40" y="420">Split predicate:</text><text x="140" y="420">&#60;</text></g><g><rect rx="10" style="fill:blue;fill-opacity:.8" x="170" y="360" width="150" height="120"></rect><text x="190" y="380">Value:</text><text x="290" y="380">1.70</text><text x="190" y="400">Split index:</text><text x="290" y="400">3</text><text x="190" y="420">Split predicate:</text><text x="290" y="420">&#8805;</text></g></svg>