<svg xmlns="http://www.w3.org/2000/svg" width="880" height="390"><style>.label { font: 14px sans-serif; }.value { font: bold 14px sans-serif; }.root-node-label { font: 24px sans-serif; }</style><g><rect rx="15" style="fill:blue;fill-opacity:.25;stroke:cornflowerblue;stroke-width:2" x="340.0" y="20" width="200" height="80"></rect><text class="root-node-label" x="405.0" y="70">ROOT</text><line x1="440.0" y1="100" x2="220.0" y2="150" style="stroke:cornflowerblue;stroke-width:1" /><line x1="440.0" y1="100" x2="660.0" y2="150" style="stroke:cornflowerblue;stroke-width:1" /></g><g><rect rx="15" style="fill:blue;fill-opacity:.25;stroke:cornflowerblue;stroke-width:2" x="120.0" y="150" width="200" height="80"></rect><text class="label" x="140.0" y="185">Column index</text><text class="value" x="240.0" y="185">2</text><text class="label" x="140.0" y="205">Split condition</text><text class="value" x="240.0" y="205">&#60; 2.75</text></g><g><rect rx="15" style="fill:blue;fill-opacity:.25;stroke:cornflowerblue;stroke-width:2" x="560.0" y="150" width="200" height="80"></rect><text class="label" x="580.0" y="185">Column index</text><text class="value" x="680.0" y="185">2</text><text class="label" x="580.0" y="205">Split condition</text><text class="value" x="680.0" y="205">&#8805; 2.75</text><line x1="660.0" y1="230" x2="550.0" y2="280" style="stroke:cornflowerblue;stroke-width:1" /><line x1="660.0" y1="230" x2="770.0" y2="280" style="stroke:cornflowerblue;stroke-width:1" /></g><g><rect rx="15" style="fill:blue;fill-opacity:.25;stroke:cornflowerblue;stroke-width:2" x="450.0" y="280" width="200" height="80"></rect><text class="label" x="470.0" y="315">Column index</text><text class="value" x="570.0" y="315">3</text><text class="label" x="470.0" y="335">Split condition</text><text class="value" x="570.0" y="335">&#60; 1.65</text></g><g><rect rx="15" style="fill:blue;fill-opacity:.25;stroke:cornflowerblue;stroke-width:2" x="670.0" y="280" width="200" height="80"></rect><text class="label" x="690.0" y="315">Column index</text><text class="value" x="790.0" y="315">3</text><text class="label" x="690.0" y="335">Split condition</text><text class="value" x="790.0" y="335">&#8805; 1.65</text></g></svg>