<svg xmlns="http://www.w3.org/2000/svg" width="1040" height="510"><g><rect rx="10" style="fill:blue;fill-opacity:.8" x="445" y="20" width="150" height="120"></rect><text x="465" y="40">Value:</text><text x="565" y="40">-</text><text x="465" y="60">Split index:</text><text x="565" y="60">-</text><text x="465" y="80">Split predicate:</text><text x="565" y="80">-</text></g><g><rect rx="10" style="fill:blue;fill-opacity:.8" x="370" y="190" width="150" height="120"></rect><text x="390" y="210">Value:</text><text x="490" y="210">2.25</text><text x="390" y="230">Split index:</text><text x="490" y="230">2</text><text x="390" y="250">Split predicate:</text><text x="490" y="250">&#60;</text></g><g><rect rx="10" style="fill:blue;fill-opacity:.8" x="540" y="190" width="150" height="120"></rect><text x="560" y="210">Value:</text><text x="660" y="210">2.25</text><text x="560" y="230">Split index:</text><text x="660" y="230">2</text><text x="560" y="250">Split predicate:</text><text x="660" y="250">&#8805;</text></g><g><rect rx="10" style="fill:blue;fill-opacity:.8" x="465" y="360" width="150" height="120"></rect><text x="485" y="380">Value:</text><text x="585" y="380">1.70</text><text x="485" y="400">Split index:</text><text x="585" y="400">3</text><text x="485" y="420">Split predicate:</text><text x="585" y="420">&#60;</text></g><g><rect rx="10" style="fill:blue;fill-opacity:.8" x="635" y="360" width="150" height="120"></rect><text x="655" y="380">Value:</text><text x="755" y="380">1.70</text><text x="655" y="400">Split index:</text><text x="755" y="400">3</text><text x="655" y="420">Split predicate:</text><text x="755" y="420">&#8805;</text></g></svg>