<svg xmlns="http://www.w3.org/2000/svg" width="680" height="510"><g><rect rx="10" style="fill:blue;fill-opacity:.8" x="265" y="20" width="150" height="120"></rect><text x="285" y="40">Value:</text><text x="385" y="40">-</text><text x="285" y="60">Split index:</text><text x="385" y="60">-</text><text x="285" y="80">Split predicate:</text><text x="385" y="80">-</text></g><g><rect rx="10" style="fill:blue;fill-opacity:.8" x="95.0" y="190" width="150" height="120"></rect><text x="115.0" y="210">Value:</text><text x="215.0" y="210">2.45</text><text x="115.0" y="230">Split index:</text><text x="215.0" y="230">2</text><text x="115.0" y="250">Split predicate:</text><text x="215.0" y="250">&#60;</text></g><g><rect rx="10" style="fill:blue;fill-opacity:.8" x="435.0" y="190" width="150" height="120"></rect><text x="455.0" y="210">Value:</text><text x="555.0" y="210">2.45</text><text x="455.0" y="230">Split index:</text><text x="555.0" y="230">2</text><text x="455.0" y="250">Split predicate:</text><text x="555.0" y="250">&#8805;</text></g><g><rect rx="10" style="fill:blue;fill-opacity:.8" x="10.0" y="360" width="150" height="120"></rect><text x="30.0" y="380">Value:</text><text x="130.0" y="380">1.75</text><text x="30.0" y="400">Split index:</text><text x="130.0" y="400">3</text><text x="30.0" y="420">Split predicate:</text><text x="130.0" y="420">&#60;</text></g><g><rect rx="10" style="fill:blue;fill-opacity:.8" x="180.0" y="360" width="150" height="120"></rect><text x="200.0" y="380">Value:</text><text x="300.0" y="380">1.75</text><text x="200.0" y="400">Split index:</text><text x="300.0" y="400">3</text><text x="200.0" y="420">Split predicate:</text><text x="300.0" y="420">&#8805;</text></g></svg>